<svg width="1240" height="500" viewBox="0 0 1240 500" fill="none" xmlns="http://www.w3.org/2000/svg">
<rect width="1240" height="500" rx="30" fill="#24B4DB"/>
<circle cx="525" cy="160" r="5" fill="#50C3E2"/>
<circle cx="525" cy="175" r="5" fill="#50C3E2"/>
<circle cx="540" cy="160" r="5" fill="#50C3E2"/>
<circle cx="540" cy="175" r="5" fill="#50C3E2"/>
<circle cx="555" cy="160" r="5" fill="#50C3E2"/>
<circle cx="555" cy="175" r="5" fill="#50C3E2"/>
<circle cx="570" cy="160" r="5" fill="#50C3E2"/>
<circle cx="570" cy="175" r="5" fill="#50C3E2"/>
<circle cx="585" cy="160" r="5" fill="#50C3E2"/>
<circle cx="585" cy="175" r="5" fill="#50C3E2"/>
<mask id="mask0_288_13" style="mask-type:alpha" maskUnits="userSpaceOnUse" x="0" y="0" width="1240" height="500">
<rect width="1240" height="500" rx="30" fill="#24B4DB"/>
</mask>
<g mask="url(#mask0_288_13)">
<g filter="url(#filter0_d_288_13)">
<path d="M166.5 410.984C98.4034 378.282 34.3333 378.317 0 398.484V499.484H540.5C527 480.484 477.3 447.184 386.5 465.984C273 489.484 255 453.484 166.5 410.984Z" fill="#50C3E2"/>
</g>
<path d="M1.5 411.63C24.1667 411.296 92.5 336.63 224 425.63C283.639 465.994 318.574 463.402 358 456.63C439.5 442.63 507 427.13 562 500.13" stroke="#50C3E2" stroke-width="2"/>
<path d="M1190 403.5C1190 552.893 1068.89 674 919.5 674C770.107 674 649 552.893 649 403.5C649 254.107 770.107 133 919.5 133C1068.89 133 1190 254.107 1190 403.5Z" fill="#24B4DB" stroke="#50C3E2" stroke-width="2"/>
<g filter="url(#filter1_d_288_13)">
<circle cx="919" cy="406" r="252" fill="#50C3E2"/>
</g>
<circle cx="440" cy="-27" r="309" fill="url(#paint0_radial_288_13)" fill-opacity="0.35"/>
</g>
<defs>
<filter id="filter0_d_288_13" x="-24" y="344.63" width="620.5" height="194.854" filterUnits="userSpaceOnUse" color-interpolation-filters="sRGB">
<feFlood flood-opacity="0" result="BackgroundImageFix"/>
<feColorMatrix in="SourceAlpha" type="matrix" values="0 0 0 0 0 0 0 0 0 0 0 0 0 0 0 0 0 0 127 0" result="hardAlpha"/>
<feOffset dx="16"/>
<feGaussianBlur stdDeviation="20"/>
<feComposite in2="hardAlpha" operator="out"/>
<feColorMatrix type="matrix" values="0 0 0 0 0.439216 0 0 0 0 0.564706 0 0 0 0 0.690196 0 0 0 0.1 0"/>
<feBlend mode="normal" in2="BackgroundImageFix" result="effect1_dropShadow_288_13"/>
<feBlend mode="normal" in="SourceGraphic" in2="effect1_dropShadow_288_13" result="shape"/>
</filter>
<filter id="filter1_d_288_13" x="643" y="114" width="584" height="584" filterUnits="userSpaceOnUse" color-interpolation-filters="sRGB">
<feFlood flood-opacity="0" result="BackgroundImageFix"/>
<feColorMatrix in="SourceAlpha" type="matrix" values="0 0 0 0 0 0 0 0 0 0 0 0 0 0 0 0 0 0 127 0" result="hardAlpha"/>
<feOffset dx="16"/>
<feGaussianBlur stdDeviation="20"/>
<feComposite in2="hardAlpha" operator="out"/>
<feColorMatrix type="matrix" values="0 0 0 0 0.439216 0 0 0 0 0.501961 0 0 0 0 0.690196 0 0 0 0.2 0"/>
<feBlend mode="normal" in2="BackgroundImageFix" result="effect1_dropShadow_288_13"/>
<feBlend mode="normal" in="SourceGraphic" in2="effect1_dropShadow_288_13" result="shape"/>
</filter>
<radialGradient id="paint0_radial_288_13" cx="0" cy="0" r="1" gradientUnits="userSpaceOnUse" gradientTransform="translate(440 -27) rotate(85.7001) scale(291.258)">
<stop stop-color="white"/>
<stop offset="1" stop-color="white" stop-opacity="0"/>
</radialGradient>
</defs>
</svg>
