<svg width="20" height="18" viewBox="0 0 20 18" fill="none" xmlns="http://www.w3.org/2000/svg">
<path d="M9.00002 18C9.00002 17.1716 8.32842 16.5 7.5 16.5C6.67158 16.5 6 17.1716 6 18H1C0.44772 18 0 17.5523 0 17V1C0 0.44772 0.44772 0 1 0H6C6 0.82843 6.67158 1.5 7.5 1.5C8.32842 1.5 9.00002 0.82843 9.00002 0H19C19.5523 0 20 0.44772 20 1V6.5C18.6193 6.5 17.5 7.61929 17.5 8.99999C17.5 10.3807 18.6193 11.5 20 11.5V17C20 17.5523 19.5523 18 19 18H9.00002ZM7.5 7.49999C8.32842 7.49999 9.00002 6.82843 9.00002 6C9.00002 5.17157 8.32842 4.5 7.5 4.5C6.67158 4.5 6 5.17157 6 6C6 6.82843 6.67158 7.49999 7.5 7.49999ZM7.5 13.5C8.32842 13.5 9.00002 12.8284 9.00002 12C9.00002 11.1716 8.32842 10.5 7.5 10.5C6.67158 10.5 6 11.1716 6 12C6 12.8284 6.67158 13.5 7.5 13.5Z" fill="#586873"/>
</svg>
