<svg width="330" height="248" viewBox="0 0 330 248" fill="none" xmlns="http://www.w3.org/2000/svg">
<path opacity="0.3" d="M82.0545 53.4937C54.549 64.1136 34.1385 91.0296 30.0795 123.597C26.6888 151.039 34.7903 181.361 82.4835 189.998C175.279 206.813 270.938 208.779 293.122 163.428C315.307 118.077 284.947 45.4567 237.847 40.4306C200.475 36.4327 135.787 32.7556 82.0545 53.4937Z" fill="#E6E6E6"/>
<path d="M199.757 47.1514H130.243C125.882 47.1514 122.348 50.676 122.348 55.0238V186.017C122.348 190.365 125.882 193.889 130.243 193.889H199.757C204.118 193.889 207.652 190.365 207.652 186.017V55.0238C207.652 50.676 204.118 47.1514 199.757 47.1514Z" fill="#24285B"/>
<path opacity="0.03" d="M165 189.406C168.413 189.406 171.179 186.647 171.179 183.245C171.179 179.842 168.413 177.083 165 177.083C161.587 177.083 158.821 179.842 158.821 183.245C158.821 186.647 161.587 189.406 165 189.406Z" fill="black"/>
<path d="M199.328 59.8854H130.664V174.138H199.328V59.8854Z" fill="#68E1FD"/>
<path opacity="0.03" d="M157.138 167.344C158.377 167.344 159.382 166.342 159.382 165.106C159.382 163.87 158.377 162.869 157.138 162.869C155.898 162.869 154.894 163.87 154.894 165.106C154.894 166.342 155.898 167.344 157.138 167.344Z" fill="black"/>
<path opacity="0.44" d="M165 167.344C166.239 167.344 167.244 166.342 167.244 165.106C167.244 163.87 166.239 162.869 165 162.869C163.761 162.869 162.756 163.87 162.756 165.106C162.756 166.342 163.761 167.344 165 167.344Z" fill="white"/>
<path opacity="0.03" d="M172.862 167.344C174.102 167.344 175.106 166.342 175.106 165.106C175.106 163.87 174.102 162.869 172.862 162.869C171.623 162.869 170.618 163.87 170.618 165.106C170.618 166.342 171.623 167.344 172.862 167.344Z" fill="black"/>
<path opacity="0.03" d="M190.171 72.4879H139.829V115.338H190.171V72.4879Z" fill="black"/>
<path opacity="0.03" d="M175.148 123.597H139.829V127.521H175.148V123.597Z" fill="black"/>
<path opacity="0.03" d="M190.171 123.597H177.532V127.521H190.171V123.597Z" fill="black"/>
<path opacity="0.03" d="M156.329 135.632H139.829V139.556H156.329V135.632Z" fill="black"/>
<path opacity="0.03" d="M190.171 135.632H159.836V139.556H190.171V135.632Z" fill="black"/>
<path opacity="0.03" d="M177.952 147.675H139.829V151.599H177.952V147.675Z" fill="black"/>
<path d="M114.609 59.8854H45.9442V174.138H114.609V59.8854Z" fill="#68E1FD"/>
<path opacity="0.44" d="M72.4185 167.344C73.6578 167.344 74.6625 166.342 74.6625 165.106C74.6625 163.87 73.6578 162.869 72.4185 162.869C71.1792 162.869 70.1745 163.87 70.1745 165.106C70.1745 166.342 71.1792 167.344 72.4185 167.344Z" fill="white"/>
<path opacity="0.03" d="M80.2807 167.344C81.5201 167.344 82.5247 166.342 82.5247 165.106C82.5247 163.87 81.5201 162.869 80.2807 162.869C79.0414 162.869 78.0367 163.87 78.0367 165.106C78.0367 166.342 79.0414 167.344 80.2807 167.344Z" fill="black"/>
<path opacity="0.03" d="M88.143 167.344C89.3823 167.344 90.387 166.342 90.387 165.106C90.387 163.87 89.3823 162.869 88.143 162.869C86.9037 162.869 85.899 163.87 85.899 165.106C85.899 166.342 86.9037 167.344 88.143 167.344Z" fill="black"/>
<path opacity="0.03" d="M105.451 72.4879H55.11V115.338H105.451V72.4879Z" fill="black"/>
<path opacity="0.03" d="M90.4282 123.597H55.11V127.521H90.4282V123.597Z" fill="black"/>
<path opacity="0.03" d="M105.451 123.597H92.8125V127.521H105.451V123.597Z" fill="black"/>
<path opacity="0.03" d="M71.61 135.632H55.11V139.556H71.61V135.632Z" fill="black"/>
<path opacity="0.03" d="M105.452 135.632H75.1163V139.556H105.452V135.632Z" fill="black"/>
<path opacity="0.03" d="M93.2332 147.675H55.11V151.599H93.2332V147.675Z" fill="black"/>
<path d="M284.047 59.8854H215.383V174.138H284.047V59.8854Z" fill="#68E1FD"/>
<path opacity="0.03" d="M241.857 167.344C243.096 167.344 244.101 166.342 244.101 165.106C244.101 163.87 243.096 162.869 241.857 162.869C240.618 162.869 239.613 163.87 239.613 165.106C239.613 166.342 240.618 167.344 241.857 167.344Z" fill="black"/>
<path opacity="0.03" d="M249.719 167.344C250.959 167.344 251.963 166.342 251.963 165.106C251.963 163.87 250.959 162.869 249.719 162.869C248.48 162.869 247.475 163.87 247.475 165.106C247.475 166.342 248.48 167.344 249.719 167.344Z" fill="black"/>
<path opacity="0.44" d="M257.581 167.344C258.821 167.344 259.825 166.342 259.825 165.106C259.825 163.87 258.821 162.869 257.581 162.869C256.342 162.869 255.337 163.87 255.337 165.106C255.337 166.342 256.342 167.344 257.581 167.344Z" fill="white"/>
<path opacity="0.03" d="M274.89 72.4879H224.548V115.338H274.89V72.4879Z" fill="black"/>
<path opacity="0.03" d="M259.867 123.597H224.548V127.521H259.867V123.597Z" fill="black"/>
<path opacity="0.03" d="M274.89 123.597H262.251V127.521H274.89V123.597Z" fill="black"/>
<path opacity="0.03" d="M241.048 135.632H224.548V139.556H241.048V135.632Z" fill="black"/>
<path opacity="0.03" d="M274.898 135.632H244.563V139.556H274.898V135.632Z" fill="black"/>
<path opacity="0.03" d="M262.672 147.675H224.548V151.599H262.672V147.675Z" fill="black"/>
<path opacity="0.1" d="M188.43 193.922C188.43 193.1 186.681 159.372 187.803 154.354C188.925 149.336 199.221 124.806 196.507 121.943C193.792 119.081 183.851 125.596 183.851 125.596C183.851 125.596 185.666 96.0557 181.376 93.9498C177.086 91.844 175.18 100.095 175.18 100.095L172.895 133.139L161.576 193.766L188.43 193.922Z" fill="black"/>
<path d="M180.782 159.529C182.226 153.77 184.396 148.152 185.782 142.336C186.698 138.486 192.621 122.396 194.279 117.658C194.791 116.202 195.228 114.441 194.238 113.257C193.904 112.91 193.488 112.653 193.028 112.51C192.568 112.366 192.079 112.34 191.606 112.434C190.653 112.633 189.773 113.091 189.065 113.758C187.415 115.206 184.371 122.371 182.143 122.363C179.446 122.363 180.716 114.959 180.642 113.536C180.337 107.408 180.79 99.5519 178.39 93.7936C176.608 89.516 172.186 90.0918 171.146 94.7149C170.107 99.338 170.148 118.711 170.148 118.711C170.148 118.711 152.889 115.757 149.944 121.006C146.999 126.254 151.973 159.595 151.973 159.595L180.782 159.529Z" fill="#F4A28C"/>
<path d="M182.886 210.671L182.573 157.686L150.323 150.628L137.338 210.671H182.886Z" fill="#FFD200"/>
<path opacity="0.1" d="M182.886 210.671L182.572 157.686L167.178 154.313L164.422 210.671H182.886Z" fill="black"/>
</svg>
